<?xml version="1.0" encoding="UTF-8" standalone="no"?>
<!-- Created with Inkscape (http://www.inkscape.org/) -->

<svg
   width="210mm"
   height="297mm"
   viewBox="0 0 210 297"
   version="1.1"
   id="svg1"
   xml:space="preserve"
   xmlns:inkscape="http://www.inkscape.org/namespaces/inkscape"
   xmlns:sodipodi="http://sodipodi.sourceforge.net/DTD/sodipodi-0.dtd"
   xmlns="http://www.w3.org/2000/svg"
   xmlns:svg="http://www.w3.org/2000/svg"><sodipodi:namedview
     id="namedview1"
     pagecolor="#ffffff"
     bordercolor="#000000"
     borderopacity="0.25"
     inkscape:showpageshadow="2"
     inkscape:pageopacity="0.0"
     inkscape:pagecheckerboard="0"
     inkscape:deskcolor="#d1d1d1"
     inkscape:document-units="mm" /><defs
     id="defs1" /><g
     inkscape:label="Capa 1"
     inkscape:groupmode="layer"
     id="layer1"><path
       style="fill:#000000"
       d="M 57.199941,148.5058 V 80.76667 h 47.892419 47.89241 l -0.069,59.86198 -0.069,59.86197 -0.70186,2.05794 c -2.0728,6.07771 -6.73462,10.65734 -13.05648,12.82628 l -2.11666,0.7262 -39.885941,0.0719 -39.885938,0.072 z m 69.420929,61.79109 c -2.3951,-1.0424 -2.21729,-4.34634 0.27823,-5.16994 1.67286,-0.55209 3.59043,0.85772 3.59043,2.63971 0,0.93972 -0.78555,2.13698 -1.67077,2.54644 -0.77296,0.35754 -0.52494,0.37767 2.99368,0.24295 2.11005,-0.0808 4.15557,-0.21795 4.54558,-0.30482 l 0.70912,-0.15794 -0.51331,-0.98481 c -1.50451,-2.88647 2.08351,-5.55726 4.38027,-3.2605 0.36736,0.36736 0.66793,0.88982 0.66793,1.16101 0,0.78298 0.45928,0.58512 1.77274,-0.76368 1.10628,-1.13606 1.16909,-1.26486 0.65383,-1.34103 -0.3135,-0.0463 -0.9282,-0.44245 -1.366,-0.88024 -1.74997,-1.74998 -0.4875,-4.72404 2.00532,-4.72404 0.45732,0 1.13181,0.23623 1.49887,0.52496 l 0.66738,0.52496 0.18641,-0.59111 c 0.10252,-0.32511 0.23873,-2.37704 0.30269,-4.55985 0.10799,-3.68558 0.088,-3.90669 -0.28033,-3.09895 -1.17375,2.57409 -5.17633,1.59463 -5.17633,-1.26668 0,-2.85862 4.03536,-3.84968 5.15763,-1.26667 0.3292,0.75769 0.37924,-5.83955 0.38826,-51.18697 l 0.0104,-52.05677 H 105.08953 62.756191 V 148.5 210.67708 l 32.345313,-0.0104 c 27.490946,-0.009 32.221356,-0.0643 31.519366,-0.36983 z m 4.82542,-6.14354 c -1.19297,-1.19297 -1.23309,-2.77659 -0.10109,-3.98941 1.66397,-1.78274 4.70058,-0.53601 4.70058,1.92991 0,2.4261 -2.92374,3.73525 -4.59949,2.0595 z m -39.064039,-5.30423 c -1.035128,-0.71344 -1.29822,-1.19103 -1.307228,-2.37304 -0.0068,-0.88645 0.152084,-1.26463 0.805688,-1.91823 l 0.814102,-0.8141 h 3.928045 3.928042 l 0.81411,0.8141 c 0.6536,0.6536 0.81244,1.03178 0.80568,1.91823 -0.009,1.18201 -0.2721,1.6596 -1.30722,2.37304 -0.53747,0.37043 -1.294076,0.45088 -4.240612,0.45088 -2.946535,0 -3.703143,-0.0805 -4.240607,-0.45088 z m 16.933329,0 c -1.03512,-0.71344 -1.29822,-1.19103 -1.30722,-2.37304 -0.007,-0.88645 0.15208,-1.26463 0.80568,-1.91823 l 0.81411,-0.8141 h 3.92804 3.92805 l 0.8141,0.8141 c 0.6536,0.6536 0.81244,1.03178 0.80569,1.91823 -0.009,1.18201 -0.2721,1.6596 -1.30723,2.37304 -0.53746,0.37043 -1.29407,0.45088 -4.24061,0.45088 -2.94653,0 -3.70314,-0.0805 -4.24061,-0.45088 z m 28.14654,-0.0588 c -2.31901,-1.41404 -1.24357,-5.04657 1.49407,-5.04657 2.7071,0 3.7952,3.64349 1.50512,5.03985 -1.06567,0.64979 -1.94135,0.65175 -2.99919,0.007 z M 74.133275,179.58854 v -2.77812 h -2.910417 -2.910417 v -8.45772 -8.45771 l 2.844271,-0.0751 2.844271,-0.0751 0.0751,-2.84427 0.0751,-2.84427 h 8.457716 8.457715 v 2.91042 2.91041 h 2.778125 2.778125 v 8.46667 8.46667 h -2.778125 -2.778125 v 2.77812 2.77812 h -8.466667 -8.466666 z m 39.477145,2.29313 c -1.75066,-0.62491 -3.11271,-1.6999 -4.21782,-3.32889 -1.1269,-1.66112 -1.47733,-3.05971 -1.33151,-5.31424 0.19828,-3.06579 1.88279,-5.57415 4.65887,-6.93743 2.01124,-0.98768 5.04496,-1.04082 7.05394,-0.12356 1.53207,0.69951 3.40308,2.41682 4.09879,3.76209 1.2157,2.35075 1.15967,5.85972 -0.12873,8.0614 -2.06122,3.52235 -6.43981,5.19912 -10.13354,3.88063 z m 4.9054,-6.32404 c 0.86485,-1.06518 0.79707,-2.44543 -0.17099,-3.48173 -0.63691,-0.68182 -0.96865,-0.82173 -1.9483,-0.82173 -2.08145,0 -3.33039,1.93003 -2.44979,3.78575 0.88788,1.87107 3.25268,2.13902 4.56908,0.51771 z m 12.106,-4.91952 c -2.1955,-0.86081 -3.87648,-2.36279 -4.93673,-4.41103 -0.89237,-1.7239 -0.99277,-4.64106 -0.22966,-6.67305 1.63614,-4.35671 6.94848,-6.5759 11.14378,-4.65523 2.0575,0.94196 3.27468,2.11413 4.24773,4.09067 2.77735,5.6416 -1.31885,12.0518 -7.65536,11.97998 -0.97681,-0.0111 -2.1332,-0.16017 -2.56976,-0.33134 z m 4.69635,-6.26663 c 2.2489,-2.46828 -1.17316,-5.97769 -3.73056,-3.82579 -1.00525,0.84587 -1.24821,1.89951 -0.72612,3.14905 0.76696,1.83558 3.08072,2.18692 4.45668,0.67674 z M 68.312441,120.32188 V 92.143753 h 36.777089 36.77708 V 120.32188 148.5 H 105.08953 68.312441 Z m 67.733339,-0.0653 V 97.700003 H 105.08953 74.133275 v 22.555727 22.55573 l 30.956255,8.5e-4 30.95625,8.5e-4 z"
       id="path1" /><path
       style="fill:#f05666;fill-opacity:1;stroke:#acb05a;stroke-width:0"
       id="path5"
       sodipodi:type="arc"
       sodipodi:cx="116.19792"
       sodipodi:cy="173.97298"
       sodipodi:rx="3.1425714"
       sodipodi:ry="3.1425714"
       sodipodi:start="0.0065517473"
       sodipodi:end="0.0065341708"
       sodipodi:arc-type="slice"
       d="m 119.34043,173.99357 a 3.1425714,3.1425714 0 0 1 -3.16308,3.12191 3.1425714,3.1425714 0 0 1 -3.12193,-3.16306 3.1425714,3.1425714 0 0 1 3.16305,-3.12195 3.1425714,3.1425714 0 0 1 3.12196,3.16304 l -3.14251,-0.0205 z" /><path
       style="fill:#f05666;fill-opacity:1;stroke:#acb05a;stroke-width:0"
       id="path5-8"
       sodipodi:type="arc"
       sodipodi:cx="133.31758"
       sodipodi:cy="162.95091"
       sodipodi:rx="3.1425714"
       sodipodi:ry="3.1425714"
       sodipodi:start="0.0065517473"
       sodipodi:end="0.0065341708"
       sodipodi:arc-type="slice"
       d="m 136.46009,162.9715 a 3.1425714,3.1425714 0 0 1 -3.16308,3.12192 3.1425714,3.1425714 0 0 1 -3.12193,-3.16307 3.1425714,3.1425714 0 0 1 3.16305,-3.12194 3.1425714,3.1425714 0 0 1 3.12196,3.16304 l -3.14251,-0.0205 z" /><rect
       style="fill:#008f8f;fill-opacity:1;stroke:#acb05a;stroke-width:0"
       id="rect5"
       width="64.358498"
       height="47.146339"
       x="73.541946"
       y="97.224663" /><g
       id="g6"
       transform="translate(206.56858,-0.57261484)"
       style="fill:#666666"><rect
         style="fill:#666666;fill-opacity:1;stroke:#acb05a;stroke-width:0"
         id="rect6"
         width="5.425571"
         height="17.399246"
         x="-126.75257"
         y="160.42853" /><rect
         style="fill:#666666;fill-opacity:1;stroke:#acb05a;stroke-width:0"
         id="rect6-9"
         width="5.9868369"
         height="17.399246"
         x="165.84285"
         y="115.40601"
         transform="rotate(90)" /></g></g></svg>
